<mxfile host="app.diagrams.net" modified="2021-09-15T11:44:02.152Z" agent="5.0 (Windows NT 10.0; Win64; x64) AppleWebKit/537.36 (KHTML, like Gecko) Chrome/93.0.4577.63 Safari/537.36 Edg/93.0.961.44" etag="-u0wIZMTKMOyUz2xTuu2" version="15.2.5" type="github">
  <diagram id="qVqX0yZwPj7S_sAdX9F5" name="Page-1">
    <mxGraphModel dx="638" dy="358" grid="1" gridSize="10" guides="1" tooltips="1" connect="1" arrows="1" fold="1" page="1" pageScale="1" pageWidth="827" pageHeight="1169" math="1" shadow="0">
      <root>
        <mxCell id="0" />
        <mxCell id="1" parent="0" />
        <mxCell id="SmLturCochtXtd0KNKY3-1" value="" style="endArrow=block;html=1;endFill=1;strokeColor=#2185BA;" edge="1" parent="1">
          <mxGeometry width="50" height="50" relative="1" as="geometry">
            <mxPoint x="284" y="240" as="sourcePoint" />
            <mxPoint x="284" y="180" as="targetPoint" />
          </mxGeometry>
        </mxCell>
        <mxCell id="SmLturCochtXtd0KNKY3-2" value="" style="endArrow=block;html=1;endFill=1;strokeColor=#2185BA;" edge="1" parent="1">
          <mxGeometry width="50" height="50" relative="1" as="geometry">
            <mxPoint x="284" y="240" as="sourcePoint" />
            <mxPoint x="334" y="240" as="targetPoint" />
          </mxGeometry>
        </mxCell>
        <mxCell id="SmLturCochtXtd0KNKY3-3" value="" style="endArrow=block;html=1;endFill=1;strokeColor=#2185BA;" edge="1" parent="1">
          <mxGeometry width="50" height="50" relative="1" as="geometry">
            <mxPoint x="284" y="240" as="sourcePoint" />
            <mxPoint x="254" y="270" as="targetPoint" />
          </mxGeometry>
        </mxCell>
        <mxCell id="SmLturCochtXtd0KNKY3-4" value="$$i$$" style="text;html=1;strokeColor=none;fillColor=none;align=center;verticalAlign=middle;whiteSpace=wrap;rounded=0;fontColor=#2185BA;spacingTop=0;" vertex="1" parent="1">
          <mxGeometry x="240" y="264" width="20" height="20" as="geometry" />
        </mxCell>
        <mxCell id="SmLturCochtXtd0KNKY3-5" value="$$j$$" style="text;html=1;strokeColor=none;fillColor=none;align=center;verticalAlign=middle;whiteSpace=wrap;rounded=0;fontColor=#2185BA;spacingTop=0;" vertex="1" parent="1">
          <mxGeometry x="334" y="230" width="20" height="20" as="geometry" />
        </mxCell>
        <mxCell id="SmLturCochtXtd0KNKY3-6" value="$$k$$" style="text;html=1;strokeColor=none;fillColor=none;align=center;verticalAlign=middle;whiteSpace=wrap;rounded=0;fontColor=#2185BA;spacingTop=0;" vertex="1" parent="1">
          <mxGeometry x="274" y="160" width="20" height="20" as="geometry" />
        </mxCell>
        <mxCell id="SmLturCochtXtd0KNKY3-7" value="" style="endArrow=classic;html=1;fontColor=#007D65;strokeColor=#64BBE2;curved=1;" edge="1" parent="1">
          <mxGeometry width="50" height="50" relative="1" as="geometry">
            <mxPoint x="269" y="200" as="sourcePoint" />
            <mxPoint x="299" y="200" as="targetPoint" />
            <Array as="points">
              <mxPoint x="279" y="220" />
            </Array>
          </mxGeometry>
        </mxCell>
        <mxCell id="SmLturCochtXtd0KNKY3-8" value="$$\psi$$" style="text;html=1;strokeColor=none;fillColor=none;align=center;verticalAlign=middle;whiteSpace=wrap;rounded=0;fontColor=#64BBE2;spacingTop=0;" vertex="1" parent="1">
          <mxGeometry x="284" y="210" width="20" height="20" as="geometry" />
        </mxCell>
        <mxCell id="SmLturCochtXtd0KNKY3-21" value="$$k^{\prime}$$" style="text;html=1;strokeColor=none;fillColor=none;align=center;verticalAlign=middle;whiteSpace=wrap;rounded=0;fontColor=#12AAB5;spacingTop=0;" vertex="1" parent="1">
          <mxGeometry x="400" y="180" width="20" height="20" as="geometry" />
        </mxCell>
        <mxCell id="SmLturCochtXtd0KNKY3-29" value="$$j^{\prime}$$" style="text;html=1;strokeColor=none;fillColor=none;align=center;verticalAlign=middle;whiteSpace=wrap;rounded=0;fontColor=#E85642;spacingTop=0;" vertex="1" parent="1">
          <mxGeometry x="634" y="190.2" width="20" height="20" as="geometry" />
        </mxCell>
        <mxCell id="SmLturCochtXtd0KNKY3-30" value="$$k^{\prime}$$" style="text;html=1;strokeColor=none;fillColor=none;align=center;verticalAlign=middle;whiteSpace=wrap;rounded=0;fontColor=#E85642;spacingTop=0;" vertex="1" parent="1">
          <mxGeometry x="550" y="170" width="20" height="20" as="geometry" />
        </mxCell>
        <mxCell id="SmLturCochtXtd0KNKY3-33" value="" style="endArrow=block;html=1;endFill=1;strokeColor=#007D65;" edge="1" parent="1">
          <mxGeometry width="50" height="50" relative="1" as="geometry">
            <mxPoint x="284" y="240" as="sourcePoint" />
            <mxPoint x="300" y="280" as="targetPoint" />
          </mxGeometry>
        </mxCell>
        <mxCell id="SmLturCochtXtd0KNKY3-34" value="$$i^{\prime}$$" style="text;html=1;strokeColor=none;fillColor=none;align=center;verticalAlign=middle;whiteSpace=wrap;rounded=0;fontColor=#007D65;spacingTop=0;" vertex="1" parent="1">
          <mxGeometry x="301" y="270" width="20" height="20" as="geometry" />
        </mxCell>
        <mxCell id="SmLturCochtXtd0KNKY3-35" value="" style="endArrow=block;html=1;endFill=1;strokeColor=#007D65;" edge="1" parent="1">
          <mxGeometry width="50" height="50" relative="1" as="geometry">
            <mxPoint x="284" y="240" as="sourcePoint" />
            <mxPoint x="334" y="220.2" as="targetPoint" />
          </mxGeometry>
        </mxCell>
        <mxCell id="SmLturCochtXtd0KNKY3-36" value="$$j^{\prime}$$" style="text;html=1;strokeColor=none;fillColor=none;align=center;verticalAlign=middle;whiteSpace=wrap;rounded=0;fontColor=#007D65;spacingTop=0;" vertex="1" parent="1">
          <mxGeometry x="330" y="210.2" width="20" height="20" as="geometry" />
        </mxCell>
        <mxCell id="SmLturCochtXtd0KNKY3-38" value="" style="endArrow=block;html=1;endFill=1;strokeColor=#2185BA;" edge="1" parent="1">
          <mxGeometry width="50" height="50" relative="1" as="geometry">
            <mxPoint x="444" y="240" as="sourcePoint" />
            <mxPoint x="444" y="180" as="targetPoint" />
          </mxGeometry>
        </mxCell>
        <mxCell id="SmLturCochtXtd0KNKY3-39" value="" style="endArrow=block;html=1;endFill=1;strokeColor=#2185BA;" edge="1" parent="1">
          <mxGeometry width="50" height="50" relative="1" as="geometry">
            <mxPoint x="444" y="240" as="sourcePoint" />
            <mxPoint x="494" y="240" as="targetPoint" />
          </mxGeometry>
        </mxCell>
        <mxCell id="SmLturCochtXtd0KNKY3-40" value="" style="endArrow=block;html=1;endFill=1;strokeColor=#2185BA;" edge="1" parent="1">
          <mxGeometry width="50" height="50" relative="1" as="geometry">
            <mxPoint x="444" y="240" as="sourcePoint" />
            <mxPoint x="414" y="270" as="targetPoint" />
          </mxGeometry>
        </mxCell>
        <mxCell id="SmLturCochtXtd0KNKY3-41" value="$$i$$" style="text;html=1;strokeColor=none;fillColor=none;align=center;verticalAlign=middle;whiteSpace=wrap;rounded=0;fontColor=#2185BA;spacingTop=0;" vertex="1" parent="1">
          <mxGeometry x="400" y="264" width="20" height="20" as="geometry" />
        </mxCell>
        <mxCell id="SmLturCochtXtd0KNKY3-42" value="$$j$$" style="text;html=1;strokeColor=none;fillColor=none;align=center;verticalAlign=middle;whiteSpace=wrap;rounded=0;fontColor=#2185BA;spacingTop=0;" vertex="1" parent="1">
          <mxGeometry x="494" y="230" width="20" height="20" as="geometry" />
        </mxCell>
        <mxCell id="SmLturCochtXtd0KNKY3-43" value="$$k$$" style="text;html=1;strokeColor=none;fillColor=none;align=center;verticalAlign=middle;whiteSpace=wrap;rounded=0;fontColor=#2185BA;spacingTop=0;" vertex="1" parent="1">
          <mxGeometry x="434" y="160" width="20" height="20" as="geometry" />
        </mxCell>
        <mxCell id="SmLturCochtXtd0KNKY3-50" value="" style="endArrow=classic;html=1;fontColor=#2185BA;strokeColor=#64BBE2;curved=1;" edge="1" parent="1">
          <mxGeometry width="50" height="50" relative="1" as="geometry">
            <mxPoint x="474" y="230" as="sourcePoint" />
            <mxPoint x="485" y="250" as="targetPoint" />
            <Array as="points">
              <mxPoint x="464" y="240" />
            </Array>
          </mxGeometry>
        </mxCell>
        <mxCell id="SmLturCochtXtd0KNKY3-51" value="$$\theta$$" style="text;html=1;strokeColor=none;fillColor=none;align=center;verticalAlign=middle;whiteSpace=wrap;rounded=0;fontColor=#64BBE2;spacingTop=0;" vertex="1" parent="1">
          <mxGeometry x="454" y="220" width="20" height="20" as="geometry" />
        </mxCell>
        <mxCell id="SmLturCochtXtd0KNKY3-52" value="" style="endArrow=block;html=1;endFill=1;strokeColor=#12AAB5;" edge="1" parent="1">
          <mxGeometry width="50" height="50" relative="1" as="geometry">
            <mxPoint x="444" y="240" as="sourcePoint" />
            <mxPoint x="430" y="280" as="targetPoint" />
          </mxGeometry>
        </mxCell>
        <mxCell id="SmLturCochtXtd0KNKY3-53" value="$$i^{\prime}$$" style="text;html=1;strokeColor=none;fillColor=none;align=center;verticalAlign=middle;whiteSpace=wrap;rounded=0;fontColor=#12AAB5;spacingTop=0;" vertex="1" parent="1">
          <mxGeometry x="424" y="280" width="20" height="20" as="geometry" />
        </mxCell>
        <mxCell id="SmLturCochtXtd0KNKY3-54" value="" style="endArrow=block;html=1;endFill=1;strokeColor=#12AAB5;" edge="1" parent="1">
          <mxGeometry width="50" height="50" relative="1" as="geometry">
            <mxPoint x="444" y="240" as="sourcePoint" />
            <mxPoint x="420" y="190" as="targetPoint" />
          </mxGeometry>
        </mxCell>
        <mxCell id="SmLturCochtXtd0KNKY3-60" value="$$j$$" style="text;html=1;strokeColor=none;fillColor=none;align=center;verticalAlign=middle;whiteSpace=wrap;rounded=0;fontColor=#2185BA;spacingTop=0;" vertex="1" parent="1">
          <mxGeometry x="644" y="230" width="19.999999999999993" height="20" as="geometry" />
        </mxCell>
        <mxCell id="SmLturCochtXtd0KNKY3-56" value="" style="endArrow=block;html=1;endFill=1;strokeColor=#2185BA;" edge="1" parent="1">
          <mxGeometry x="1066" y="320" width="50" height="50" as="geometry">
            <mxPoint x="594" y="240" as="sourcePoint" />
            <mxPoint x="594" y="180" as="targetPoint" />
          </mxGeometry>
        </mxCell>
        <mxCell id="SmLturCochtXtd0KNKY3-57" value="" style="endArrow=block;html=1;endFill=1;strokeColor=#2185BA;" edge="1" parent="1">
          <mxGeometry x="1066" y="320" width="50" height="50" as="geometry">
            <mxPoint x="594" y="240" as="sourcePoint" />
            <mxPoint x="644" y="240" as="targetPoint" />
          </mxGeometry>
        </mxCell>
        <mxCell id="SmLturCochtXtd0KNKY3-58" value="" style="endArrow=block;html=1;endFill=1;strokeColor=#2185BA;" edge="1" parent="1">
          <mxGeometry x="1066" y="320" width="50" height="50" as="geometry">
            <mxPoint x="594" y="240" as="sourcePoint" />
            <mxPoint x="564" y="270" as="targetPoint" />
          </mxGeometry>
        </mxCell>
        <mxCell id="SmLturCochtXtd0KNKY3-59" value="$$i$$" style="text;html=1;strokeColor=none;fillColor=none;align=center;verticalAlign=middle;whiteSpace=wrap;rounded=0;fontColor=#2185BA;spacingTop=0;" vertex="1" parent="1">
          <mxGeometry x="550" y="264" width="19.999999999999993" height="20" as="geometry" />
        </mxCell>
        <mxCell id="SmLturCochtXtd0KNKY3-61" value="$$k$$" style="text;html=1;strokeColor=none;fillColor=none;align=center;verticalAlign=middle;whiteSpace=wrap;rounded=0;fontColor=#2185BA;spacingTop=0;" vertex="1" parent="1">
          <mxGeometry x="584" y="160" width="19.999999999999993" height="20" as="geometry" />
        </mxCell>
        <mxCell id="SmLturCochtXtd0KNKY3-67" value="" style="endArrow=classic;html=1;fontColor=#64BBE2;strokeColor=#64BBE2;curved=1;" edge="1" parent="1">
          <mxGeometry x="1066" y="320" width="50" height="50" as="geometry">
            <mxPoint x="586" y="260" as="sourcePoint" />
            <mxPoint x="564" y="250" as="targetPoint" />
            <Array as="points">
              <mxPoint x="586" y="244" />
            </Array>
          </mxGeometry>
        </mxCell>
        <mxCell id="SmLturCochtXtd0KNKY3-68" value="$$\phi$$" style="text;html=1;strokeColor=none;fillColor=none;align=center;verticalAlign=middle;whiteSpace=wrap;rounded=0;fontColor=#64BBE2;spacingTop=0;" vertex="1" parent="1">
          <mxGeometry x="584" y="244" width="19.999999999999993" height="20" as="geometry" />
        </mxCell>
        <mxCell id="SmLturCochtXtd0KNKY3-25" value="" style="endArrow=block;html=1;endFill=1;strokeColor=#E85642;" edge="1" parent="1">
          <mxGeometry width="50" height="50" relative="1" as="geometry">
            <mxPoint x="594" y="240" as="sourcePoint" />
            <mxPoint x="565" y="190" as="targetPoint" />
          </mxGeometry>
        </mxCell>
        <mxCell id="SmLturCochtXtd0KNKY3-71" value="" style="endArrow=block;html=1;endFill=1;strokeColor=#E85642;" edge="1" parent="1">
          <mxGeometry width="50" height="50" relative="1" as="geometry">
            <mxPoint x="594" y="239.8" as="sourcePoint" />
            <mxPoint x="634" y="210" as="targetPoint" />
          </mxGeometry>
        </mxCell>
        <mxCell id="SmLturCochtXtd0KNKY3-72" value="" style="rounded=0;whiteSpace=wrap;html=1;fontColor=#64BBE2;fillColor=none;strokeColor=none;" vertex="1" parent="1">
          <mxGeometry x="230" y="150" width="450" height="160" as="geometry" />
        </mxCell>
      </root>
    </mxGraphModel>
  </diagram>
</mxfile>
